{
    "asset" : {
        "generator" : "Khronos glTF Blender I/O v1.4.40",
        "version" : "2.0"
    },
    "scene" : 0,
    "scenes" : [
        {
            "name" : "Scene",
            "nodes" : [
                0,
                1
            ]
        }
    ],
    "nodes" : [
        {
            "mesh" : 0,
            "name" : "rp_janna01.001",
            "rotation" : [
                -0.5672378540039062,
                -0.4221862554550171,
                0.4221861660480499,
                0.5672378540039062
            ],
            "scale" : [
                0.19307567179203033,
                0.1930757313966751,
                0.19307570159435272
            ],
            "translation" : [
                0.051769375801086426,
                0.6323509216308594,
                -0.4467606544494629
            ]
        },
        {
            "mesh" : 1,
            "name" : "Plane001.001",
            "scale" : [
                1.8340409724260098e-07,
                1.8340409724260098e-07,
                1.8340409724260098e-07
            ],
            "translation" : [
                0.1419716328382492,
                1.4894205331802368,
                -1.2272796630859375
            ]
        }
    ],
    "animations" : [
        {
            "channels" : [
                {
                    "sampler" : 0,
                    "target" : {
                        "node" : 1,
                        "path" : "translation"
                    }
                },
                {
                    "sampler" : 1,
                    "target" : {
                        "node" : 1,
                        "path" : "rotation"
                    }
                },
                {
                    "sampler" : 2,
                    "target" : {
                        "node" : 1,
                        "path" : "scale"
                    }
                }
            ],
            "name" : "Plane001.001Action",
            "samplers" : [
                {
                    "input" : 11,
                    "interpolation" : "LINEAR",
                    "output" : 12
                },
                {
                    "input" : 11,
                    "interpolation" : "LINEAR",
                    "output" : 13
                },
                {
                    "input" : 11,
                    "interpolation" : "LINEAR",
                    "output" : 14
                }
            ]
        }
    ],
    "materials" : [
        {
            "doubleSided" : true,
            "name" : "PIERNA.004",
            "pbrMetallicRoughness" : {
                "baseColorTexture" : {
                    "index" : 0,
                    "texCoord" : 0
                },
                "metallicFactor" : 0,
                "roughnessFactor" : 0.4343145787715912
            }
        },
        {
            "alphaCutoff" : 0.5,
            "alphaMode" : "MASK",
            "doubleSided" : true,
            "name" : "Material #25.001",
            "pbrMetallicRoughness" : {
                "baseColorTexture" : {
                    "index" : 1,
                    "texCoord" : 0
                },
                "roughnessFactor" : 0.858578622341156
            }
        },
        {
            "doubleSided" : true,
            "name" : "gasa.009",
            "pbrMetallicRoughness" : {
                "baseColorTexture" : {
                    "index" : 2,
                    "texCoord" : 0
                },
                "metallicFactor" : 0,
                "roughnessFactor" : 0.4000000059604645
            }
        }
    ],
    "meshes" : [
        {
            "name" : "Mesh.003",
            "primitives" : [
                {
                    "attributes" : {
                        "POSITION" : 0,
                        "NORMAL" : 1
                    },
                    "indices" : 2,
                    "material" : 0
                }
            ]
        },
        {
            "name" : "Mesh.007",
            "primitives" : [
                {
                    "attributes" : {
                        "POSITION" : 3,
                        "NORMAL" : 4,
                        "TEXCOORD_0" : 5
                    },
                    "indices" : 6,
                    "material" : 1
                },
                {
                    "attributes" : {
                        "POSITION" : 7,
                        "NORMAL" : 8,
                        "TEXCOORD_0" : 9
                    },
                    "indices" : 10,
                    "material" : 2
                }
            ]
        }
    ],
    "textures" : [
        {
            "sampler" : 0,
            "source" : 0
        },
        {
            "sampler" : 0,
            "source" : 1
        },
        {
            "sampler" : 0,
            "source" : 2
        }
    ],
    "images" : [
        {
            "bufferView" : 3,
            "mimeType" : "image/png",
            "name" : "Map #13-Map #13"
        },
        {
            "bufferView" : 8,
            "mimeType" : "image/png",
            "name" : "HAND"
        },
        {
            "bufferView" : 13,
            "mimeType" : "image/jpeg",
            "name" : "gasadifusse"
        }
    ],
    "accessors" : [
        {
            "bufferView" : 0,
            "componentType" : 5126,
            "count" : 600,
            "max" : [
                3.699550151824951,
                7.290132522583008,
                2.110668182373047
            ],
            "min" : [
                -4.461472511291504,
                -9.0341157913208,
                -1.9858218431472778
            ],
            "type" : "VEC3"
        },
        {
            "bufferView" : 1,
            "componentType" : 5126,
            "count" : 600,
            "type" : "VEC3"
        },
        {
            "bufferView" : 2,
            "componentType" : 5123,
            "count" : 3210,
            "type" : "SCALAR"
        },
        {
            "bufferView" : 4,
            "componentType" : 5126,
            "count" : 4,
            "max" : [
                21450,
                0,
                43850
            ],
            "min" : [
                -21450,
                0,
                -43850
            ],
            "type" : "VEC3"
        },
        {
            "bufferView" : 5,
            "componentType" : 5126,
            "count" : 4,
            "type" : "VEC3"
        },
        {
            "bufferView" : 6,
            "componentType" : 5126,
            "count" : 4,
            "type" : "VEC2"
        },
        {
            "bufferView" : 7,
            "componentType" : 5123,
            "count" : 6,
            "type" : "SCALAR"
        },
        {
            "bufferView" : 9,
            "componentType" : 5126,
            "count" : 121,
            "max" : [
                6862.3134765625,
                -2707.5224609375,
                -33056.15625
            ],
            "min" : [
                -19866.1796875,
                -4734.6396484375,
                -60192.75
            ],
            "type" : "VEC3"
        },
        {
            "bufferView" : 10,
            "componentType" : 5126,
            "count" : 121,
            "type" : "VEC3"
        },
        {
            "bufferView" : 11,
            "componentType" : 5126,
            "count" : 121,
            "type" : "VEC2"
        },
        {
            "bufferView" : 12,
            "componentType" : 5123,
            "count" : 600,
            "type" : "SCALAR"
        },
        {
            "bufferView" : 14,
            "componentType" : 5126,
            "count" : 311,
            "max" : [
                10.333333333333334
            ],
            "min" : [
                0
            ],
            "type" : "SCALAR"
        },
        {
            "bufferView" : 15,
            "componentType" : 5126,
            "count" : 311,
            "type" : "VEC3"
        },
        {
            "bufferView" : 16,
            "componentType" : 5126,
            "count" : 311,
            "type" : "VEC4"
        },
        {
            "bufferView" : 17,
            "componentType" : 5126,
            "count" : 311,
            "type" : "VEC3"
        }
    ],
    "bufferViews" : [
        {
            "buffer" : 0,
            "byteLength" : 7200,
            "byteOffset" : 0
        },
        {
            "buffer" : 0,
            "byteLength" : 7200,
            "byteOffset" : 7200
        },
        {
            "buffer" : 0,
            "byteLength" : 6420,
            "byteOffset" : 14400
        },
        {
            "buffer" : 0,
            "byteLength" : 1577845,
            "byteOffset" : 20820
        },
        {
            "buffer" : 0,
            "byteLength" : 48,
            "byteOffset" : 1598668
        },
        {
            "buffer" : 0,
            "byteLength" : 48,
            "byteOffset" : 1598716
        },
        {
            "buffer" : 0,
            "byteLength" : 32,
            "byteOffset" : 1598764
        },
        {
            "buffer" : 0,
            "byteLength" : 12,
            "byteOffset" : 1598796
        },
        {
            "buffer" : 0,
            "byteLength" : 260848,
            "byteOffset" : 1598808
        },
        {
            "buffer" : 0,
            "byteLength" : 1452,
            "byteOffset" : 1859656
        },
        {
            "buffer" : 0,
            "byteLength" : 1452,
            "byteOffset" : 1861108
        },
        {
            "buffer" : 0,
            "byteLength" : 968,
            "byteOffset" : 1862560
        },
        {
            "buffer" : 0,
            "byteLength" : 1200,
            "byteOffset" : 1863528
        },
        {
            "buffer" : 0,
            "byteLength" : 512529,
            "byteOffset" : 1864728
        },
        {
            "buffer" : 0,
            "byteLength" : 1244,
            "byteOffset" : 2377260
        },
        {
            "buffer" : 0,
            "byteLength" : 3732,
            "byteOffset" : 2378504
        },
        {
            "buffer" : 0,
            "byteLength" : 4976,
            "byteOffset" : 2382236
        },
        {
            "buffer" : 0,
            "byteLength" : 3732,
            "byteOffset" : 2387212
        }
    ],
    "samplers" : [
        {
            "magFilter" : 9729,
            "minFilter" : 9986
        }
    ],
    "buffers" : [
        {
            "byteLength" : 2390944,
            "uri" : "data:application/octet-stream;base64,"
        }
    ]
}
