{"asset":{"version":"2.0","generator":"babylon.js glTF exporter for 3dsmax 2021 v20201214.2"},"extensionsUsed":["KHR_texture_transform"],"extensionsRequired":["KHR_texture_transform"],"scene":0,"scenes":[{"nodes":[0,5,6,7]}],"nodes":[{"children":[1,2,3,4],"translation":[-0.0556099638,1.57354093,0.0846444],"rotation":[0.7071068,-1.45432381E-17,1.45432381E-17,0.7071067],"scale":[15.2752438,15.2752438,15.2752438],"name":"locator1"},{"mesh":0,"translation":[0.00584395137,0.08796342,0.0],"name":"tapa","extras":{"currentUVSet":"map1"}},{"mesh":1,"translation":[0.00591083569,0.0206015967,0.0],"name":"cuerpo","extras":{"currentUVSet":"map1"}},{"mesh":2,"translation":[0.005910836,0.0206016023,0.0],"name":"pico","extras":{"currentUVSet":"map1"}},{"mesh":3,"translation":[0.00506188348,-0.0202586539,1.9608784E-05],"name":"amarillo","extras":{"currentUVSet":"map1"}},{"translation":[-0.2770344,2.32228422,-0.9974674],"rotation":[-0.707106769,0.0,0.0,0.707106769],"name":"Omni001"},{"translation":[-0.2770344,2.32228422,2.24837971],"rotation":[-0.707106769,0.0,0.0,0.707106769],"name":"Omni002"},{"translation":[-0.2770344,0.660001934,0.1746405],"rotation":[-0.707106769,0.0,0.0,0.707106769],"name":"Omni003"}],"meshes":[{"primitives":[{"attributes":{"POSITION":1,"NORMAL":2,"TEXCOORD_0":3},"indices":0,"material":0}],"name":"tapa"},{"primitives":[{"attributes":{"POSITION":5,"NORMAL":6,"TEXCOORD_0":7},"indices":4,"material":1},{"attributes":{"POSITION":9,"NORMAL":10,"TEXCOORD_0":11},"indices":8,"material":0},{"attributes":{"POSITION":13,"NORMAL":14,"TEXCOORD_0":15},"indices":12,"material":2},{"attributes":{"POSITION":17,"NORMAL":18,"TEXCOORD_0":19},"indices":16,"material":3},{"attributes":{"POSITION":21,"NORMAL":22,"TEXCOORD_0":23},"indices":20,"material":4},{"attributes":{"POSITION":25,"NORMAL":26,"TEXCOORD_0":27},"indices":24,"material":5}],"name":"cuerpo"},{"primitives":[{"attributes":{"POSITION":29,"NORMAL":30,"TEXCOORD_0":31},"indices":28,"material":0},{"attributes":{"POSITION":33,"NORMAL":34,"TEXCOORD_0":35},"indices":32,"material":6}],"name":"pico"},{"primitives":[{"attributes":{"POSITION":37,"NORMAL":38,"TEXCOORD_0":39},"indices":36,"material":7}],"name":"amarillo"}],"accessors":[{"bufferView":0,"componentType":5123,"count":996,"type":"SCALAR","name":"accessorIndices"},{"bufferView":1,"componentType":5126,"count":996,"max":[0.0129275024,0.01905866,0.0131032094],"min":[-0.0129275024,-0.01905866,-0.0131032215],"type":"VEC3","name":"accessorPositions"},{"bufferView":1,"byteOffset":11952,"componentType":5126,"count":996,"type":"VEC3","name":"accessorNormals"},{"bufferView":2,"componentType":5126,"count":996,"type":"VEC2","name":"accessorUVs"},{"bufferView":0,"byteOffset":1992,"componentType":5123,"count":1848,"type":"SCALAR","name":"accessorIndices"},{"bufferView":1,"byteOffset":23904,"componentType":5126,"count":1848,"max":[0.012942344,0.0297136772,0.0131032094],"min":[-0.0129126487,-0.126365811,-0.0131032215],"type":"VEC3","name":"accessorPositions"},{"bufferView":1,"byteOffset":46080,"componentType":5126,"count":1848,"type":"VEC3","name":"accessorNormals"},{"bufferView":2,"byteOffset":7968,"componentType":5126,"count":1848,"type":"VEC2","name":"accessorUVs"},{"bufferView":0,"byteOffset":5688,"componentType":5123,"count":2688,"type":"SCALAR","name":"accessorIndices"},{"bufferView":1,"byteOffset":68256,"componentType":5126,"count":2688,"max":[0.012942344,0.0610503852,0.0131032094],"min":[-0.0129126487,-0.124227993,-0.0131032215],"type":"VEC3","name":"accessorPositions"},{"bufferView":1,"byteOffset":100512,"componentType":5126,"count":2688,"type":"VEC3","name":"accessorNormals"},{"bufferView":2,"byteOffset":22752,"componentType":5126,"count":2688,"type":"VEC2","name":"accessorUVs"},{"bufferView":0,"byteOffset":11064,"componentType":5123,"count":252,"type":"SCALAR","name":"accessorIndices"},{"bufferView":1,"byteOffset":132768,"componentType":5126,"count":252,"max":[0.012942344,0.03249155,0.0131032094],"min":[-0.0129126487,0.02971357,-0.0131032215],"type":"VEC3","name":"accessorPositions"},{"bufferView":1,"byteOffset":135792,"componentType":5126,"count":252,"type":"VEC3","name":"accessorNormals"},{"bufferView":2,"byteOffset":44256,"componentType":5126,"count":252,"type":"VEC2","name":"accessorUVs"},{"bufferView":0,"byteOffset":11568,"componentType":5123,"count":252,"type":"SCALAR","name":"accessorIndices"},{"bufferView":1,"byteOffset":138816,"componentType":5126,"count":252,"max":[0.012942344,0.04598632,0.0131032094],"min":[-0.0129126487,0.032491453,-0.0131032215],"type":"VEC3","name":"accessorPositions"},{"bufferView":1,"byteOffset":141840,"componentType":5126,"count":252,"type":"VEC3","name":"accessorNormals"},{"bufferView":2,"byteOffset":46272,"componentType":5126,"count":252,"type":"VEC2","name":"accessorUVs"},{"bufferView":0,"byteOffset":12072,"componentType":5123,"count":252,"type":"SCALAR","name":"accessorIndices"},{"bufferView":1,"byteOffset":144864,"componentType":5126,"count":252,"max":[0.012942344,-0.0124963494,0.0131032094],"min":[-0.0129126487,-0.124227993,-0.0131032215],"type":"VEC3","name":"accessorPositions"},{"bufferView":1,"byteOffset":147888,"componentType":5126,"count":252,"type":"VEC3","name":"accessorNormals"},{"bufferView":2,"byteOffset":48288,"componentType":5126,"count":252,"type":"VEC2","name":"accessorUVs"},{"bufferView":0,"byteOffset":12576,"componentType":5123,"count":252,"type":"SCALAR","name":"accessorIndices"},{"bufferView":1,"byteOffset":150912,"componentType":5126,"count":252,"max":[0.012942344,0.0297136661,0.0131032094],"min":[-0.0129126487,0.0271014459,-0.0131032215],"type":"VEC3","name":"accessorPositions"},{"bufferView":1,"byteOffset":153936,"componentType":5126,"count":252,"type":"VEC3","name":"accessorNormals"},{"bufferView":2,"byteOffset":50304,"componentType":5126,"count":252,"type":"VEC2","name":"accessorUVs"},{"bufferView":0,"byteOffset":13080,"componentType":5123,"count":252,"type":"SCALAR","name":"accessorIndices"},{"bufferView":1,"byteOffset":156960,"componentType":5126,"count":252,"max":[0.006614024,0.06799504,0.007289017],"min":[-0.007995174,0.0610503368,-0.007289005],"type":"VEC3","name":"accessorPositions"},{"bufferView":1,"byteOffset":159984,"componentType":5126,"count":252,"type":"VEC3","name":"accessorNormals"},{"bufferView":2,"byteOffset":52320,"componentType":5126,"count":252,"type":"VEC2","name":"accessorUVs"},{"bufferView":0,"byteOffset":13584,"componentType":5123,"count":756,"type":"SCALAR","name":"accessorIndices"},{"bufferView":1,"byteOffset":163008,"componentType":5126,"count":756,"max":[0.006614024,0.07112018,0.007289017],"min":[-0.007995162,0.06404467,-0.007289005],"type":"VEC3","name":"accessorPositions"},{"bufferView":1,"byteOffset":172080,"componentType":5126,"count":756,"type":"VEC3","name":"accessorNormals"},{"bufferView":2,"byteOffset":54336,"componentType":5126,"count":756,"type":"VEC2","name":"accessorUVs"},{"bufferView":0,"byteOffset":15096,"componentType":5123,"count":240,"type":"SCALAR","name":"accessorIndices"},{"bufferView":1,"byteOffset":181152,"componentType":5126,"count":240,"max":[0.00431800028,0.0254,0.00431800168],"min":[-0.004318001,-0.0254000034,-0.00431800168],"type":"VEC3","name":"accessorPositions"},{"bufferView":1,"byteOffset":184032,"componentType":5126,"count":240,"type":"VEC3","name":"accessorNormals"},{"bufferView":2,"byteOffset":60384,"componentType":5126,"count":240,"type":"VEC2","name":"accessorUVs"},{"bufferView":3,"componentType":5126,"count":6,"max":[33.3333321],"min":[0.0],"type":"SCALAR","name":"accessorAnimationInput"},{"bufferView":4,"componentType":5126,"count":6,"type":"VEC3","name":"accessorAnimationPositions"},{"bufferView":3,"byteOffset":24,"componentType":5126,"count":61,"max":[33.3333321],"min":[0.0],"type":"SCALAR","name":"accessorAnimationInput"},{"bufferView":5,"componentType":5126,"count":61,"type":"VEC4","name":"accessorAnimationRotations"},{"bufferView":3,"byteOffset":268,"componentType":5126,"count":9,"max":[33.3333321],"min":[0.0],"type":"SCALAR","name":"accessorAnimationInput"},{"bufferView":4,"byteOffset":72,"componentType":5126,"count":9,"type":"VEC3","name":"accessorAnimationPositions"},{"bufferView":3,"byteOffset":304,"componentType":5126,"count":16,"max":[33.3333321],"min":[0.0],"type":"SCALAR","name":"accessorAnimationInput"},{"bufferView":5,"byteOffset":976,"componentType":5126,"count":16,"type":"VEC4","name":"accessorAnimationRotations"},{"bufferView":3,"byteOffset":368,"componentType":5126,"count":8,"max":[33.3333321],"min":[0.0],"type":"SCALAR","name":"accessorAnimationInput"},{"bufferView":4,"byteOffset":180,"componentType":5126,"count":8,"type":"VEC3","name":"accessorAnimationScales"},{"bufferView":3,"byteOffset":400,"componentType":5126,"count":2,"max":[33.3333321],"min":[0.0],"type":"SCALAR","name":"accessorAnimationInput"},{"bufferView":4,"byteOffset":276,"componentType":5126,"count":2,"type":"VEC3","name":"accessorAnimationPositions"},{"bufferView":3,"byteOffset":408,"componentType":5126,"count":4,"max":[33.3333321],"min":[0.0],"type":"SCALAR","name":"accessorAnimationInput"},{"bufferView":4,"byteOffset":300,"componentType":5126,"count":4,"type":"VEC3","name":"accessorAnimationPositions"}],"bufferViews":[{"buffer":0,"byteLength":15576,"name":"bufferViewScalar"},{"buffer":0,"byteOffset":15576,"byteLength":186912,"byteStride":12,"name":"bufferViewFloatVec3"},{"buffer":0,"byteOffset":202488,"byteLength":62304,"byteStride":8,"name":"bufferViewFloatVec2"},{"buffer":0,"byteOffset":264792,"byteLength":424,"name":"bufferViewAnimationFloatScalar"},{"buffer":0,"byteOffset":265216,"byteLength":348,"name":"bufferViewAnimationFloatVec3"},{"buffer":0,"byteOffset":265564,"byteLength":1232,"name":"bufferViewAnimationFloatVec4"}],"buffers":[{"uri":"nuevo formatoV4.bin","byteLength":266796}],"materials":[{"pbrMetallicRoughness":{"baseColorFactor":[0.9019608,0.9019608,0.9019608,1.0],"metallicFactor":0.0,"roughnessFactor":0.211577132},"name":"V_white_plastic"},{"pbrMetallicRoughness":{"baseColorFactor":[0.9490196,0.9490196,0.9490196,1.0],"metallicFactor":0.0,"roughnessFactor":0.450053632},"name":"V_transparente"},{"pbrMetallicRoughness":{"baseColorFactor":[1.0,0.0,0.0,1.0],"metallicFactor":0.0,"roughnessFactor":0.450053632},"name":"V_red_plastic"},{"pbrMetallicRoughness":{"baseColorFactor":[0.08235294,0.007843138,0.270588249,1.0],"metallicFactor":0.0,"roughnessFactor":0.450053632},"name":"V_purple_plastic"},{"pbrMetallicRoughness":{"baseColorTexture":{"index":0,"extensions":{"KHR_texture_transform":{"texCoord":0}}},"metallicRoughnessTexture":{"index":1,"extensions":{"KHR_texture_transform":{"texCoord":0}}}},"name":"V_logo"},{"pbrMetallicRoughness":{"baseColorFactor":[0.7764706,0.5294118,0.0,1.0],"metallicFactor":0.0,"roughnessFactor":0.450053632},"name":"VRayMtl8"},{"pbrMetallicRoughness":{"baseColorFactor":[0.0431372561,0.03137255,0.6313726,1.0],"metallicFactor":0.0,"roughnessFactor":0.450053632},"name":"V_blue_plastic"},{"pbrMetallicRoughness":{"baseColorFactor":[1.0,0.694117665,0.06666667,1.0],"metallicFactor":0.0,"roughnessFactor":0.450053632},"name":"V_wellow"}],"textures":[{"sampler":0,"source":0,"name":"etiquetaok.png"},{"sampler":0,"source":1,"name":"MR_etiquetaok.png_spec_etiquetaok_gloss_25,6.png"}],"images":[{"uri":"./etiquetaok.png"},{"uri":"./MR_etiquetaok.png_spec_etiquetaok_gloss_25,6.png"}],"samplers":[{"magFilter":9729,"minFilter":9987}],"animations":[{"channels":[{"sampler":0,"target":{"node":0,"path":"translation"}},{"sampler":1,"target":{"node":0,"path":"rotation"}},{"sampler":2,"target":{"node":1,"path":"translation"}},{"sampler":3,"target":{"node":1,"path":"rotation"}},{"sampler":4,"target":{"node":1,"path":"scale"}},{"sampler":5,"target":{"node":2,"path":"translation"}},{"sampler":6,"target":{"node":4,"path":"translation"}}],"samplers":[{"input":40,"output":41},{"input":42,"output":43},{"input":44,"output":45},{"input":46,"output":47},{"input":48,"output":49},{"input":50,"output":51},{"input":52,"output":53}],"name":"All Animations"}]}