{
    "asset" : {
        "generator" : "Khronos glTF Blender I/O v1.4.40",
        "version" : "2.0"
    },
    "scene" : 0,
    "scenes" : [
        {
            "name" : "Scene",
            "nodes" : [
                9
            ]
        }
    ],
    "nodes" : [
        {
            "name" : "transform2"
        },
        {
            "children" : [
                0
            ],
            "name" : "pCylinder1",
            "translation" : [
                0,
                0,
                4.095338821411133
            ]
        },
        {
            "mesh" : 0,
            "name" : "pCylinder12",
            "rotation" : [
                -0.7071068286895752,
                0,
                0,
                0.7071067094802856
            ],
            "translation" : [
                0,
                4.095338821411133,
                0
            ]
        },
        {
            "name" : "transform3"
        },
        {
            "children" : [
                3
            ],
            "name" : "pCylinder5",
            "translation" : [
                0,
                0,
                4.095338821411133
            ]
        },
        {
            "name" : "transform1"
        },
        {
            "children" : [
                5
            ],
            "name" : "pCylinder6",
            "translation" : [
                0,
                0,
                4.095338821411133
            ]
        },
        {
            "name" : "transform4"
        },
        {
            "children" : [
                7
            ],
            "name" : "pCylinder7",
            "translation" : [
                0,
                0,
                4.095338821411133
            ]
        },
        {
            "children" : [
                1,
                2,
                4,
                6,
                8
            ],
            "name" : "locator1",
            "rotation" : [
                -0.9435032606124878,
                -0.331363320350647,
                0,
                7.123251322127544e-08
            ],
            "scale" : [
                0.009999999776482582,
                0.009999999776482582,
                0.009999999776482582
            ],
            "translation" : [
                0,
                0.0409533865749836,
                0
            ]
        }
    ],
    "materials" : [
        {
            "doubleSided" : true,
            "name" : "V_wellow",
            "pbrMetallicRoughness" : {
                "baseColorFactor" : [
                    0.5,
                    0.5,
                    0.5,
                    1
                ],
                "metallicFactor" : 0,
                "roughnessFactor" : 0.5527864098548889
            }
        },
        {
            "doubleSided" : true,
            "name" : "V_transparente",
            "pbrMetallicRoughness" : {
                "baseColorFactor" : [
                    0.5,
                    0.5,
                    0.5,
                    1
                ],
                "metallicFactor" : 0,
                "roughnessFactor" : 0.5527864098548889
            }
        },
        {
            "doubleSided" : true,
            "name" : "V_white_plastic",
            "pbrMetallicRoughness" : {
                "baseColorFactor" : [
                    0.5,
                    0.5,
                    0.5,
                    1
                ],
                "metallicFactor" : 0,
                "roughnessFactor" : 0.5527864098548889
            }
        },
        {
            "doubleSided" : true,
            "name" : "V_red_plastic",
            "pbrMetallicRoughness" : {
                "baseColorFactor" : [
                    0.5,
                    0.5,
                    0.5,
                    1
                ],
                "metallicFactor" : 0,
                "roughnessFactor" : 0.5527864098548889
            }
        },
        {
            "doubleSided" : true,
            "name" : "V_purple_plastic",
            "pbrMetallicRoughness" : {
                "baseColorFactor" : [
                    0.5,
                    0.5,
                    0.5,
                    1
                ],
                "metallicFactor" : 0,
                "roughnessFactor" : 0.5527864098548889
            }
        },
        {
            "doubleSided" : true,
            "name" : "V_blue_plastic",
            "pbrMetallicRoughness" : {
                "baseColorFactor" : [
                    0.5,
                    0.5,
                    0.5,
                    1
                ],
                "metallicFactor" : 0,
                "roughnessFactor" : 0.5527864098548889
            }
        },
        {
            "doubleSided" : true,
            "name" : "V_logo",
            "pbrMetallicRoughness" : {
                "baseColorFactor" : [
                    0.5,
                    0.5,
                    0.5,
                    1
                ],
                "metallicFactor" : 0,
                "roughnessFactor" : 0.5527864098548889
            }
        }
    ],
    "meshes" : [
        {
            "name" : "Mesh.039",
            "primitives" : [
                {
                    "attributes" : {
                        "POSITION" : 0,
                        "NORMAL" : 1,
                        "TEXCOORD_0" : 2
                    },
                    "indices" : 3,
                    "material" : 0
                },
                {
                    "attributes" : {
                        "POSITION" : 4,
                        "NORMAL" : 5,
                        "TEXCOORD_0" : 6
                    },
                    "indices" : 7,
                    "material" : 1
                },
                {
                    "attributes" : {
                        "POSITION" : 8,
                        "NORMAL" : 9,
                        "TEXCOORD_0" : 10
                    },
                    "indices" : 11,
                    "material" : 2
                },
                {
                    "attributes" : {
                        "POSITION" : 12,
                        "NORMAL" : 13,
                        "TEXCOORD_0" : 14
                    },
                    "indices" : 15,
                    "material" : 3
                },
                {
                    "attributes" : {
                        "POSITION" : 16,
                        "NORMAL" : 17,
                        "TEXCOORD_0" : 18
                    },
                    "indices" : 19,
                    "material" : 4
                },
                {
                    "attributes" : {
                        "POSITION" : 20,
                        "NORMAL" : 21,
                        "TEXCOORD_0" : 22
                    },
                    "indices" : 23,
                    "material" : 5
                },
                {
                    "attributes" : {
                        "POSITION" : 24,
                        "NORMAL" : 25,
                        "TEXCOORD_0" : 26
                    },
                    "indices" : 27,
                    "material" : 6
                }
            ]
        }
    ],
    "accessors" : [
        {
            "bufferView" : 0,
            "componentType" : 5126,
            "count" : 138,
            "max" : [
                0.4666577875614166,
                2.156765937805176,
                -3.913058280944824
            ],
            "min" : [
                -0.1252184808254242,
                -3.703195095062256,
                -4.513853073120117
            ],
            "type" : "VEC3"
        },
        {
            "bufferView" : 1,
            "componentType" : 5126,
            "count" : 138,
            "type" : "VEC3"
        },
        {
            "bufferView" : 2,
            "componentType" : 5126,
            "count" : 138,
            "type" : "VEC2"
        },
        {
            "bufferView" : 3,
            "componentType" : 5123,
            "count" : 450,
            "type" : "SCALAR"
        },
        {
            "bufferView" : 4,
            "componentType" : 5126,
            "count" : 252,
            "max" : [
                0.6460402011871338,
                2.156769275665283,
                -3.6668784618377686
            ],
            "min" : [
                -0.3845522403717041,
                -3.703195095062256,
                -4.685395240783691
            ],
            "type" : "VEC3"
        },
        {
            "bufferView" : 5,
            "componentType" : 5126,
            "count" : 252,
            "type" : "VEC3"
        },
        {
            "bufferView" : 6,
            "componentType" : 5126,
            "count" : 252,
            "type" : "VEC2"
        },
        {
            "bufferView" : 7,
            "componentType" : 5123,
            "count" : 654,
            "type" : "SCALAR"
        },
        {
            "bufferView" : 8,
            "componentType" : 5126,
            "count" : 1500,
            "max" : [
                0.6460402011871338,
                5.409537315368652,
                -3.666147470474243
            ],
            "min" : [
                -0.38546478748321533,
                -3.7873647212982178,
                -4.685395240783691
            ],
            "type" : "VEC3"
        },
        {
            "bufferView" : 9,
            "componentType" : 5126,
            "count" : 1500,
            "type" : "VEC3"
        },
        {
            "bufferView" : 10,
            "componentType" : 5126,
            "count" : 1500,
            "type" : "VEC2"
        },
        {
            "bufferView" : 11,
            "componentType" : 5123,
            "count" : 4428,
            "type" : "SCALAR"
        },
        {
            "bufferView" : 12,
            "componentType" : 5126,
            "count" : 86,
            "max" : [
                0.6460402011871338,
                2.266134262084961,
                -3.6668784618377686
            ],
            "min" : [
                -0.3845522403717041,
                2.1567649841308594,
                -4.685395240783691
            ],
            "type" : "VEC3"
        },
        {
            "bufferView" : 13,
            "componentType" : 5126,
            "count" : 86,
            "type" : "VEC3"
        },
        {
            "bufferView" : 14,
            "componentType" : 5126,
            "count" : 86,
            "type" : "VEC2"
        },
        {
            "bufferView" : 15,
            "componentType" : 5123,
            "count" : 252,
            "type" : "SCALAR"
        },
        {
            "bufferView" : 16,
            "componentType" : 5126,
            "count" : 86,
            "max" : [
                0.6460402011871338,
                2.6215715408325195,
                -3.6668784618377686
            ],
            "min" : [
                -0.3845522403717041,
                2.2661304473876953,
                -4.685395240783691
            ],
            "type" : "VEC3"
        },
        {
            "bufferView" : 17,
            "componentType" : 5126,
            "count" : 86,
            "type" : "VEC3"
        },
        {
            "bufferView" : 18,
            "componentType" : 5126,
            "count" : 86,
            "type" : "VEC2"
        },
        {
            "bufferView" : 19,
            "componentType" : 5123,
            "count" : 252,
            "type" : "SCALAR"
        },
        {
            "bufferView" : 20,
            "componentType" : 5126,
            "count" : 257,
            "max" : [
                0.44740045070648193,
                3.611093521118164,
                -3.9362728595733643
            ],
            "min" : [
                -0.12662291526794434,
                3.3325300216674805,
                -4.511424541473389
            ],
            "type" : "VEC3"
        },
        {
            "bufferView" : 21,
            "componentType" : 5126,
            "count" : 257,
            "type" : "VEC3"
        },
        {
            "bufferView" : 22,
            "componentType" : 5126,
            "count" : 257,
            "type" : "VEC2"
        },
        {
            "bufferView" : 23,
            "componentType" : 5123,
            "count" : 756,
            "type" : "SCALAR"
        },
        {
            "bufferView" : 24,
            "componentType" : 5126,
            "count" : 86,
            "max" : [
                0.6460402011871338,
                1.0402336120605469,
                -3.6668784618377686
            ],
            "min" : [
                -0.3845522403717041,
                -3.7031986713409424,
                -4.685395240783691
            ],
            "type" : "VEC3"
        },
        {
            "bufferView" : 25,
            "componentType" : 5126,
            "count" : 86,
            "type" : "VEC3"
        },
        {
            "bufferView" : 26,
            "componentType" : 5126,
            "count" : 86,
            "type" : "VEC2"
        },
        {
            "bufferView" : 27,
            "componentType" : 5123,
            "count" : 252,
            "type" : "SCALAR"
        }
    ],
    "bufferViews" : [
        {
            "buffer" : 0,
            "byteLength" : 1656,
            "byteOffset" : 0
        },
        {
            "buffer" : 0,
            "byteLength" : 1656,
            "byteOffset" : 1656
        },
        {
            "buffer" : 0,
            "byteLength" : 1104,
            "byteOffset" : 3312
        },
        {
            "buffer" : 0,
            "byteLength" : 900,
            "byteOffset" : 4416
        },
        {
            "buffer" : 0,
            "byteLength" : 3024,
            "byteOffset" : 5316
        },
        {
            "buffer" : 0,
            "byteLength" : 3024,
            "byteOffset" : 8340
        },
        {
            "buffer" : 0,
            "byteLength" : 2016,
            "byteOffset" : 11364
        },
        {
            "buffer" : 0,
            "byteLength" : 1308,
            "byteOffset" : 13380
        },
        {
            "buffer" : 0,
            "byteLength" : 18000,
            "byteOffset" : 14688
        },
        {
            "buffer" : 0,
            "byteLength" : 18000,
            "byteOffset" : 32688
        },
        {
            "buffer" : 0,
            "byteLength" : 12000,
            "byteOffset" : 50688
        },
        {
            "buffer" : 0,
            "byteLength" : 8856,
            "byteOffset" : 62688
        },
        {
            "buffer" : 0,
            "byteLength" : 1032,
            "byteOffset" : 71544
        },
        {
            "buffer" : 0,
            "byteLength" : 1032,
            "byteOffset" : 72576
        },
        {
            "buffer" : 0,
            "byteLength" : 688,
            "byteOffset" : 73608
        },
        {
            "buffer" : 0,
            "byteLength" : 504,
            "byteOffset" : 74296
        },
        {
            "buffer" : 0,
            "byteLength" : 1032,
            "byteOffset" : 74800
        },
        {
            "buffer" : 0,
            "byteLength" : 1032,
            "byteOffset" : 75832
        },
        {
            "buffer" : 0,
            "byteLength" : 688,
            "byteOffset" : 76864
        },
        {
            "buffer" : 0,
            "byteLength" : 504,
            "byteOffset" : 77552
        },
        {
            "buffer" : 0,
            "byteLength" : 3084,
            "byteOffset" : 78056
        },
        {
            "buffer" : 0,
            "byteLength" : 3084,
            "byteOffset" : 81140
        },
        {
            "buffer" : 0,
            "byteLength" : 2056,
            "byteOffset" : 84224
        },
        {
            "buffer" : 0,
            "byteLength" : 1512,
            "byteOffset" : 86280
        },
        {
            "buffer" : 0,
            "byteLength" : 1032,
            "byteOffset" : 87792
        },
        {
            "buffer" : 0,
            "byteLength" : 1032,
            "byteOffset" : 88824
        },
        {
            "buffer" : 0,
            "byteLength" : 688,
            "byteOffset" : 89856
        },
        {
            "buffer" : 0,
            "byteLength" : 504,
            "byteOffset" : 90544
        }
    ],
    "buffers" : [
        {
            "byteLength" : 91048,
            "uri" : "data:application/octet-stream;base64,"
        }
    ]
}
