{
    "asset" : {
        "generator" : "Khronos glTF Blender I/O v1.4.40",
        "version" : "2.0"
    },
    "scene" : 0,
    "scenes" : [
        {
            "name" : "Scene",
            "nodes" : [
                0,
                1
            ]
        }
    ],
    "nodes" : [
        {
            "mesh" : 0,
            "name" : "GASA001",
            "scale" : [
                0,
                0,
                0
            ],
            "translation" : [
                -0.1505502611398697,
                0.34836745262145996,
                0
            ]
        },
        {
            "mesh" : 1,
            "name" : "Sphere001",
            "scale" : [
                0.05471167340874672,
                0.029481373727321625,
                0.05471167340874672
            ],
            "translation" : [
                0,
                -0.42318880558013916,
                0
            ]
        }
    ],
    "animations" : [
        {
            "channels" : [
                {
                    "sampler" : 0,
                    "target" : {
                        "node" : 0,
                        "path" : "translation"
                    }
                },
                {
                    "sampler" : 1,
                    "target" : {
                        "node" : 0,
                        "path" : "rotation"
                    }
                },
                {
                    "sampler" : 2,
                    "target" : {
                        "node" : 0,
                        "path" : "scale"
                    }
                }
            ],
            "name" : "GASA001|Take 001|BaseLayer.001",
            "samplers" : [
                {
                    "input" : 8,
                    "interpolation" : "LINEAR",
                    "output" : 9
                },
                {
                    "input" : 8,
                    "interpolation" : "LINEAR",
                    "output" : 10
                },
                {
                    "input" : 8,
                    "interpolation" : "LINEAR",
                    "output" : 11
                }
            ]
        }
    ],
    "materials" : [
        {
            "doubleSided" : true,
            "name" : "gasa.001",
            "pbrMetallicRoughness" : {
                "baseColorTexture" : {
                    "index" : 0,
                    "texCoord" : 0
                },
                "metallicFactor" : 0,
                "roughnessFactor" : 0.4343145787715912
            }
        },
        {
            "doubleSided" : true,
            "name" : "PIEL.001",
            "pbrMetallicRoughness" : {
                "baseColorTexture" : {
                    "index" : 1,
                    "texCoord" : 0
                },
                "metallicFactor" : 0,
                "roughnessFactor" : 0.4343145787715912
            }
        }
    ],
    "meshes" : [
        {
            "name" : "Mesh.002",
            "primitives" : [
                {
                    "attributes" : {
                        "POSITION" : 0,
                        "NORMAL" : 1,
                        "TEXCOORD_0" : 2
                    },
                    "indices" : 3,
                    "material" : 0
                }
            ]
        },
        {
            "name" : "Mesh.003",
            "primitives" : [
                {
                    "attributes" : {
                        "POSITION" : 4,
                        "NORMAL" : 5,
                        "TEXCOORD_0" : 6
                    },
                    "indices" : 7,
                    "material" : 1
                }
            ]
        }
    ],
    "textures" : [
        {
            "sampler" : 0,
            "source" : 0
        },
        {
            "sampler" : 0,
            "source" : 1
        }
    ],
    "images" : [
        {
            "bufferView" : 4,
            "mimeType" : "image/jpeg",
            "name" : "gasadifusse"
        },
        {
            "bufferView" : 9,
            "mimeType" : "image/jpeg",
            "name" : "piel"
        }
    ],
    "accessors" : [
        {
            "bufferView" : 0,
            "componentType" : 5126,
            "count" : 2601,
            "max" : [
                19.763004302978516,
                -5.118908405303955,
                20.00262451171875
            ],
            "min" : [
                -19.80344009399414,
                -9.105112075805664,
                -20.015663146972656
            ],
            "type" : "VEC3"
        },
        {
            "bufferView" : 1,
            "componentType" : 5126,
            "count" : 2601,
            "type" : "VEC3"
        },
        {
            "bufferView" : 2,
            "componentType" : 5126,
            "count" : 2601,
            "type" : "VEC2"
        },
        {
            "bufferView" : 3,
            "componentType" : 5123,
            "count" : 15000,
            "type" : "SCALAR"
        },
        {
            "bufferView" : 5,
            "componentType" : 5126,
            "count" : 601,
            "max" : [
                19.92115020751953,
                20,
                19.960535049438477
            ],
            "min" : [
                -19.9211483001709,
                1.2558053731918335,
                -19.960535049438477
            ],
            "type" : "VEC3"
        },
        {
            "bufferView" : 6,
            "componentType" : 5126,
            "count" : 601,
            "type" : "VEC3"
        },
        {
            "bufferView" : 7,
            "componentType" : 5126,
            "count" : 601,
            "type" : "VEC2"
        },
        {
            "bufferView" : 8,
            "componentType" : 5123,
            "count" : 3450,
            "type" : "SCALAR"
        },
        {
            "bufferView" : 10,
            "componentType" : 5126,
            "count" : 381,
            "max" : [
                15.366666666666667
            ],
            "min" : [
                2.7
            ],
            "type" : "SCALAR"
        },
        {
            "bufferView" : 11,
            "componentType" : 5126,
            "count" : 381,
            "type" : "VEC3"
        },
        {
            "bufferView" : 12,
            "componentType" : 5126,
            "count" : 381,
            "type" : "VEC4"
        },
        {
            "bufferView" : 13,
            "componentType" : 5126,
            "count" : 381,
            "type" : "VEC3"
        }
    ],
    "bufferViews" : [
        {
            "buffer" : 0,
            "byteLength" : 31212,
            "byteOffset" : 0
        },
        {
            "buffer" : 0,
            "byteLength" : 31212,
            "byteOffset" : 31212
        },
        {
            "buffer" : 0,
            "byteLength" : 20808,
            "byteOffset" : 62424
        },
        {
            "buffer" : 0,
            "byteLength" : 30000,
            "byteOffset" : 83232
        },
        {
            "buffer" : 0,
            "byteLength" : 512529,
            "byteOffset" : 113232
        },
        {
            "buffer" : 0,
            "byteLength" : 7212,
            "byteOffset" : 625764
        },
        {
            "buffer" : 0,
            "byteLength" : 7212,
            "byteOffset" : 632976
        },
        {
            "buffer" : 0,
            "byteLength" : 4808,
            "byteOffset" : 640188
        },
        {
            "buffer" : 0,
            "byteLength" : 6900,
            "byteOffset" : 644996
        },
        {
            "buffer" : 0,
            "byteLength" : 405606,
            "byteOffset" : 651896
        },
        {
            "buffer" : 0,
            "byteLength" : 1524,
            "byteOffset" : 1057504
        },
        {
            "buffer" : 0,
            "byteLength" : 4572,
            "byteOffset" : 1059028
        },
        {
            "buffer" : 0,
            "byteLength" : 6096,
            "byteOffset" : 1063600
        },
        {
            "buffer" : 0,
            "byteLength" : 4572,
            "byteOffset" : 1069696
        }
    ],
    "samplers" : [
        {
            "magFilter" : 9729,
            "minFilter" : 9986
        }
    ],
    "buffers" : [
        {
            "byteLength" : 1074268,
            "uri" : "data:application/octet-stream;base64,"
        }
    ]
}
