{
    "asset" : {
        "generator" : "Khronos glTF Blender I/O v1.4.40",
        "version" : "2.0"
    },
    "scene" : 0,
    "scenes" : [
        {
            "name" : "Scene",
            "nodes" : [
                0,
                1,
                2
            ]
        }
    ],
    "nodes" : [
        {
            "name" : "Light",
            "rotation" : [
                0.16907575726509094,
                0.7558803558349609,
                -0.27217137813568115,
                0.570947527885437
            ],
            "translation" : [
                0.23984408378601074,
                2.253249406814575,
                0.19373774528503418
            ]
        },
        {
            "mesh" : 0,
            "name" : "PIEL",
            "rotation" : [
                0,
                -0.7071068286895752,
                0,
                0.7071067094802856
            ],
            "scale" : [
                0.060827791690826416,
                0.007296530995517969,
                0.02539999969303608
            ],
            "translation" : [
                0,
                0.007308753207325935,
                0
            ]
        },
        {
            "mesh" : 1,
            "name" : "GASA001",
            "scale" : [
                0,
                0,
                0
            ],
            "translation" : [
                -0.1505502611398697,
                0.33371701836586,
                0
            ]
        }
    ],
    "animations" : [
        {
            "channels" : [
                {
                    "sampler" : 0,
                    "target" : {
                        "node" : 2,
                        "path" : "translation"
                    }
                },
                {
                    "sampler" : 1,
                    "target" : {
                        "node" : 2,
                        "path" : "rotation"
                    }
                },
                {
                    "sampler" : 2,
                    "target" : {
                        "node" : 2,
                        "path" : "scale"
                    }
                }
            ],
            "name" : "GASA001|Take 001|BaseLayer.001",
            "samplers" : [
                {
                    "input" : 8,
                    "interpolation" : "LINEAR",
                    "output" : 9
                },
                {
                    "input" : 8,
                    "interpolation" : "LINEAR",
                    "output" : 10
                },
                {
                    "input" : 8,
                    "interpolation" : "LINEAR",
                    "output" : 11
                }
            ]
        }
    ],
    "materials" : [
        {
            "doubleSided" : true,
            "name" : "PIEL.001",
            "pbrMetallicRoughness" : {
                "baseColorTexture" : {
                    "index" : 0,
                    "texCoord" : 0
                },
                "metallicFactor" : 0,
                "roughnessFactor" : 0.4343145787715912
            }
        },
        {
            "doubleSided" : true,
            "name" : "gasa.001",
            "normalTexture" : {
                "index" : 1,
                "texCoord" : 0
            },
            "pbrMetallicRoughness" : {
                "baseColorTexture" : {
                    "index" : 2,
                    "texCoord" : 0
                },
                "metallicFactor" : 0,
                "roughnessFactor" : 0.4343145787715912
            }
        }
    ],
    "meshes" : [
        {
            "name" : "Mesh.008",
            "primitives" : [
                {
                    "attributes" : {
                        "POSITION" : 0,
                        "NORMAL" : 1,
                        "TEXCOORD_0" : 2
                    },
                    "indices" : 3,
                    "material" : 0
                }
            ]
        },
        {
            "name" : "Mesh.009",
            "primitives" : [
                {
                    "attributes" : {
                        "POSITION" : 4,
                        "NORMAL" : 5,
                        "TEXCOORD_0" : 6
                    },
                    "indices" : 7,
                    "material" : 1
                }
            ]
        }
    ],
    "textures" : [
        {
            "sampler" : 0,
            "source" : 0
        },
        {
            "sampler" : 0,
            "source" : 1
        },
        {
            "sampler" : 0,
            "source" : 2
        }
    ],
    "images" : [
        {
            "bufferView" : 4,
            "mimeType" : "image/jpeg",
            "name" : "hsky004"
        },
        {
            "bufferView" : 9,
            "mimeType" : "image/jpeg",
            "name" : "gasa"
        },
        {
            "bufferView" : 10,
            "mimeType" : "image/jpeg",
            "name" : "gasadifusse"
        }
    ],
    "accessors" : [
        {
            "bufferView" : 0,
            "componentType" : 5126,
            "count" : 341,
            "max" : [
                24.968969345092773,
                24.96897315979004,
                24.96897315979004
            ],
            "min" : [
                -24.968969345092773,
                0,
                -24.968969345092773
            ],
            "type" : "VEC3"
        },
        {
            "bufferView" : 1,
            "componentType" : 5126,
            "count" : 341,
            "type" : "VEC3"
        },
        {
            "bufferView" : 2,
            "componentType" : 5126,
            "count" : 341,
            "type" : "VEC2"
        },
        {
            "bufferView" : 3,
            "componentType" : 5123,
            "count" : 1920,
            "type" : "SCALAR"
        },
        {
            "bufferView" : 5,
            "componentType" : 5126,
            "count" : 2601,
            "max" : [
                19.763004302978516,
                -5.118908405303955,
                20.00262451171875
            ],
            "min" : [
                -19.80344009399414,
                -9.105112075805664,
                -20.015663146972656
            ],
            "type" : "VEC3"
        },
        {
            "bufferView" : 6,
            "componentType" : 5126,
            "count" : 2601,
            "type" : "VEC3"
        },
        {
            "bufferView" : 7,
            "componentType" : 5126,
            "count" : 2601,
            "type" : "VEC2"
        },
        {
            "bufferView" : 8,
            "componentType" : 5123,
            "count" : 15000,
            "type" : "SCALAR"
        },
        {
            "bufferView" : 11,
            "componentType" : 5126,
            "count" : 201,
            "max" : [
                9.366666666666667
            ],
            "min" : [
                2.7
            ],
            "type" : "SCALAR"
        },
        {
            "bufferView" : 12,
            "componentType" : 5126,
            "count" : 201,
            "type" : "VEC3"
        },
        {
            "bufferView" : 13,
            "componentType" : 5126,
            "count" : 201,
            "type" : "VEC4"
        },
        {
            "bufferView" : 14,
            "componentType" : 5126,
            "count" : 201,
            "type" : "VEC3"
        }
    ],
    "bufferViews" : [
        {
            "buffer" : 0,
            "byteLength" : 4092,
            "byteOffset" : 0
        },
        {
            "buffer" : 0,
            "byteLength" : 4092,
            "byteOffset" : 4092
        },
        {
            "buffer" : 0,
            "byteLength" : 2728,
            "byteOffset" : 8184
        },
        {
            "buffer" : 0,
            "byteLength" : 3840,
            "byteOffset" : 10912
        },
        {
            "buffer" : 0,
            "byteLength" : 373493,
            "byteOffset" : 14752
        },
        {
            "buffer" : 0,
            "byteLength" : 31212,
            "byteOffset" : 388248
        },
        {
            "buffer" : 0,
            "byteLength" : 31212,
            "byteOffset" : 419460
        },
        {
            "buffer" : 0,
            "byteLength" : 20808,
            "byteOffset" : 450672
        },
        {
            "buffer" : 0,
            "byteLength" : 30000,
            "byteOffset" : 471480
        },
        {
            "buffer" : 0,
            "byteLength" : 1088721,
            "byteOffset" : 501480
        },
        {
            "buffer" : 0,
            "byteLength" : 512529,
            "byteOffset" : 1590204
        },
        {
            "buffer" : 0,
            "byteLength" : 804,
            "byteOffset" : 2102736
        },
        {
            "buffer" : 0,
            "byteLength" : 2412,
            "byteOffset" : 2103540
        },
        {
            "buffer" : 0,
            "byteLength" : 3216,
            "byteOffset" : 2105952
        },
        {
            "buffer" : 0,
            "byteLength" : 2412,
            "byteOffset" : 2109168
        }
    ],
    "samplers" : [
        {
            "magFilter" : 9729,
            "minFilter" : 9986
        }
    ],
    "buffers" : [
        {
            "byteLength" : 2111580,
            "uri" : "data:application/octet-stream;base64,"
        }
    ]
}
