{"asset":{"version":"2.0","generator":"babylon.js glTF exporter for 3dsmax 2021 v20201214.2"},"extensionsUsed":["KHR_texture_transform"],"extensionsRequired":["KHR_texture_transform"],"scene":0,"scenes":[{"nodes":[0]}],"nodes":[{"children":[1],"scale":[50.0,50.0,50.0],"name":"root"},{"children":[2,3,4,5],"translation":[-0.0556099638,1.57354093,0.0846444],"rotation":[0.7071068,-1.45432381E-17,1.45432381E-17,0.7071067],"scale":[15.2752438,15.2752438,15.2752438],"name":"locator1"},{"mesh":0,"translation":[0.00584395137,0.08796342,0.0],"name":"tapa","extras":{"currentUVSet":"map1"}},{"mesh":1,"translation":[0.00591083569,0.0206015967,0.0],"name":"cuerpo","extras":{"currentUVSet":"map1"}},{"mesh":2,"translation":[0.005910836,0.0206016023,0.0],"name":"pico","extras":{"currentUVSet":"map1"}},{"mesh":3,"translation":[0.00506188348,-0.0202586539,1.9608784E-05],"name":"amarillo","extras":{"currentUVSet":"map1"}}],"meshes":[{"primitives":[{"attributes":{"POSITION":1,"NORMAL":2,"TEXCOORD_0":3},"indices":0,"material":0}],"name":"tapa"},{"primitives":[{"attributes":{"POSITION":5,"NORMAL":6,"TEXCOORD_0":7},"indices":4,"material":1},{"attributes":{"POSITION":9,"NORMAL":10,"TEXCOORD_0":11},"indices":8,"material":0},{"attributes":{"POSITION":13,"NORMAL":14,"TEXCOORD_0":15},"indices":12,"material":2},{"attributes":{"POSITION":17,"NORMAL":18,"TEXCOORD_0":19},"indices":16,"material":3},{"attributes":{"POSITION":21,"NORMAL":22,"TEXCOORD_0":23},"indices":20,"material":4},{"attributes":{"POSITION":25,"NORMAL":26,"TEXCOORD_0":27},"indices":24,"material":5}],"name":"cuerpo"},{"primitives":[{"attributes":{"POSITION":29,"NORMAL":30,"TEXCOORD_0":31},"indices":28,"material":0},{"attributes":{"POSITION":33,"NORMAL":34,"TEXCOORD_0":35},"indices":32,"material":6}],"name":"pico"},{"primitives":[{"attributes":{"POSITION":37,"NORMAL":38,"TEXCOORD_0":39},"indices":36,"material":7}],"name":"amarillo"}],"accessors":[{"bufferView":0,"componentType":5123,"count":996,"type":"SCALAR","name":"accessorIndices"},{"bufferView":1,"componentType":5126,"count":996,"max":[0.6463751,0.952932954,0.6551605],"min":[-0.6463751,-0.952932954,-0.6551611],"type":"VEC3","name":"accessorPositions"},{"bufferView":1,"byteOffset":11952,"componentType":5126,"count":996,"type":"VEC3","name":"accessorNormals"},{"bufferView":2,"componentType":5126,"count":996,"type":"VEC2","name":"accessorUVs"},{"bufferView":0,"byteOffset":1992,"componentType":5123,"count":1848,"type":"SCALAR","name":"accessorIndices"},{"bufferView":1,"byteOffset":23904,"componentType":5126,"count":1848,"max":[0.6471172,1.48568392,0.6551605],"min":[-0.645632446,-6.31829071,-0.6551611],"type":"VEC3","name":"accessorPositions"},{"bufferView":1,"byteOffset":46080,"componentType":5126,"count":1848,"type":"VEC3","name":"accessorNormals"},{"bufferView":2,"byteOffset":7968,"componentType":5126,"count":1848,"type":"VEC2","name":"accessorUVs"},{"bufferView":0,"byteOffset":5688,"componentType":5123,"count":2688,"type":"SCALAR","name":"accessorIndices"},{"bufferView":1,"byteOffset":68256,"componentType":5126,"count":2688,"max":[0.6471172,3.05251932,0.6551605],"min":[-0.645632446,-6.21139956,-0.6551611],"type":"VEC3","name":"accessorPositions"},{"bufferView":1,"byteOffset":100512,"componentType":5126,"count":2688,"type":"VEC3","name":"accessorNormals"},{"bufferView":2,"byteOffset":22752,"componentType":5126,"count":2688,"type":"VEC2","name":"accessorUVs"},{"bufferView":0,"byteOffset":11064,"componentType":5123,"count":252,"type":"SCALAR","name":"accessorIndices"},{"bufferView":1,"byteOffset":132768,"componentType":5126,"count":252,"max":[0.6471172,1.62457752,0.6551605],"min":[-0.645632446,1.48567843,-0.6551611],"type":"VEC3","name":"accessorPositions"},{"bufferView":1,"byteOffset":135792,"componentType":5126,"count":252,"type":"VEC3","name":"accessorNormals"},{"bufferView":2,"byteOffset":44256,"componentType":5126,"count":252,"type":"VEC2","name":"accessorUVs"},{"bufferView":0,"byteOffset":11568,"componentType":5123,"count":252,"type":"SCALAR","name":"accessorIndices"},{"bufferView":1,"byteOffset":138816,"componentType":5126,"count":252,"max":[0.6471172,2.299316,0.6551605],"min":[-0.645632446,1.62457263,-0.6551611],"type":"VEC3","name":"accessorPositions"},{"bufferView":1,"byteOffset":141840,"componentType":5126,"count":252,"type":"VEC3","name":"accessorNormals"},{"bufferView":2,"byteOffset":46272,"componentType":5126,"count":252,"type":"VEC2","name":"accessorUVs"},{"bufferView":0,"byteOffset":12072,"componentType":5123,"count":252,"type":"SCALAR","name":"accessorIndices"},{"bufferView":1,"byteOffset":144864,"componentType":5126,"count":252,"max":[0.6471172,-0.6248175,0.6551605],"min":[-0.645632446,-6.21139956,-0.6551611],"type":"VEC3","name":"accessorPositions"},{"bufferView":1,"byteOffset":147888,"componentType":5126,"count":252,"type":"VEC3","name":"accessorNormals"},{"bufferView":2,"byteOffset":48288,"componentType":5126,"count":252,"type":"VEC2","name":"accessorUVs"},{"bufferView":0,"byteOffset":12576,"componentType":5123,"count":252,"type":"SCALAR","name":"accessorIndices"},{"bufferView":1,"byteOffset":150912,"componentType":5126,"count":252,"max":[0.6471172,1.48568332,0.6551605],"min":[-0.645632446,1.35507226,-0.6551611],"type":"VEC3","name":"accessorPositions"},{"bufferView":1,"byteOffset":153936,"componentType":5126,"count":252,"type":"VEC3","name":"accessorNormals"},{"bufferView":2,"byteOffset":50304,"componentType":5126,"count":252,"type":"VEC2","name":"accessorUVs"},{"bufferView":0,"byteOffset":13080,"componentType":5123,"count":252,"type":"SCALAR","name":"accessorIndices"},{"bufferView":1,"byteOffset":156960,"componentType":5126,"count":252,"max":[0.3307012,3.39975214,0.364450842],"min":[-0.399758726,3.052517,-0.364450246],"type":"VEC3","name":"accessorPositions"},{"bufferView":1,"byteOffset":159984,"componentType":5126,"count":252,"type":"VEC3","name":"accessorNormals"},{"bufferView":2,"byteOffset":52320,"componentType":5126,"count":252,"type":"VEC2","name":"accessorUVs"},{"bufferView":0,"byteOffset":13584,"componentType":5123,"count":756,"type":"SCALAR","name":"accessorIndices"},{"bufferView":1,"byteOffset":163008,"componentType":5126,"count":756,"max":[0.3307012,3.556009,0.364450842],"min":[-0.3997581,3.20223355,-0.364450246],"type":"VEC3","name":"accessorPositions"},{"bufferView":1,"byteOffset":172080,"componentType":5126,"count":756,"type":"VEC3","name":"accessorNormals"},{"bufferView":2,"byteOffset":54336,"componentType":5126,"count":756,"type":"VEC2","name":"accessorUVs"},{"bufferView":0,"byteOffset":15096,"componentType":5123,"count":240,"type":"SCALAR","name":"accessorIndices"},{"bufferView":1,"byteOffset":181152,"componentType":5126,"count":240,"max":[0.215900019,1.27,0.215900078],"min":[-0.215900064,-1.27000022,-0.215900078],"type":"VEC3","name":"accessorPositions"},{"bufferView":1,"byteOffset":184032,"componentType":5126,"count":240,"type":"VEC3","name":"accessorNormals"},{"bufferView":2,"byteOffset":60384,"componentType":5126,"count":240,"type":"VEC2","name":"accessorUVs"},{"bufferView":3,"componentType":5126,"count":1001,"max":[33.3333321],"min":[0.0],"type":"SCALAR","name":"accessorAnimationInput"},{"bufferView":4,"componentType":5126,"count":1001,"type":"VEC3","name":"accessorAnimationPositions"},{"bufferView":3,"byteOffset":4004,"componentType":5126,"count":1001,"max":[33.3333321],"min":[0.0],"type":"SCALAR","name":"accessorAnimationInput"},{"bufferView":5,"componentType":5126,"count":1001,"type":"VEC4","name":"accessorAnimationRotations"},{"bufferView":3,"byteOffset":8008,"componentType":5126,"count":1001,"max":[33.3333321],"min":[0.0],"type":"SCALAR","name":"accessorAnimationInput"},{"bufferView":4,"byteOffset":12012,"componentType":5126,"count":1001,"type":"VEC3","name":"accessorAnimationPositions"},{"bufferView":3,"byteOffset":12012,"componentType":5126,"count":1001,"max":[33.3333321],"min":[0.0],"type":"SCALAR","name":"accessorAnimationInput"},{"bufferView":5,"byteOffset":16016,"componentType":5126,"count":1001,"type":"VEC4","name":"accessorAnimationRotations"},{"bufferView":3,"byteOffset":16016,"componentType":5126,"count":1001,"max":[33.3333321],"min":[0.0],"type":"SCALAR","name":"accessorAnimationInput"},{"bufferView":4,"byteOffset":24024,"componentType":5126,"count":1001,"type":"VEC3","name":"accessorAnimationScales"},{"bufferView":3,"byteOffset":20020,"componentType":5126,"count":1001,"max":[33.3333321],"min":[0.0],"type":"SCALAR","name":"accessorAnimationInput"},{"bufferView":4,"byteOffset":36036,"componentType":5126,"count":1001,"type":"VEC3","name":"accessorAnimationPositions"},{"bufferView":3,"byteOffset":24024,"componentType":5126,"count":1001,"max":[33.3333321],"min":[0.0],"type":"SCALAR","name":"accessorAnimationInput"},{"bufferView":5,"byteOffset":32032,"componentType":5126,"count":1001,"type":"VEC4","name":"accessorAnimationRotations"},{"bufferView":3,"byteOffset":28028,"componentType":5126,"count":1001,"max":[33.3333321],"min":[0.0],"type":"SCALAR","name":"accessorAnimationInput"},{"bufferView":4,"byteOffset":48048,"componentType":5126,"count":1001,"type":"VEC3","name":"accessorAnimationScales"},{"bufferView":3,"byteOffset":32032,"componentType":5126,"count":1001,"max":[33.3333321],"min":[0.0],"type":"SCALAR","name":"accessorAnimationInput"},{"bufferView":4,"byteOffset":60060,"componentType":5126,"count":1001,"type":"VEC3","name":"accessorAnimationPositions"},{"bufferView":3,"byteOffset":36036,"componentType":5126,"count":1001,"max":[33.3333321],"min":[0.0],"type":"SCALAR","name":"accessorAnimationInput"},{"bufferView":5,"byteOffset":48048,"componentType":5126,"count":1001,"type":"VEC4","name":"accessorAnimationRotations"},{"bufferView":3,"byteOffset":40040,"componentType":5126,"count":1001,"max":[33.3333321],"min":[0.0],"type":"SCALAR","name":"accessorAnimationInput"},{"bufferView":4,"byteOffset":72072,"componentType":5126,"count":1001,"type":"VEC3","name":"accessorAnimationScales"}],"bufferViews":[{"buffer":0,"byteLength":15576,"name":"bufferViewScalar"},{"buffer":0,"byteOffset":15576,"byteLength":186912,"byteStride":12,"name":"bufferViewFloatVec3"},{"buffer":0,"byteOffset":202488,"byteLength":62304,"byteStride":8,"name":"bufferViewFloatVec2"},{"buffer":0,"byteOffset":264792,"byteLength":44044,"name":"bufferViewAnimationFloatScalar"},{"buffer":0,"byteOffset":308836,"byteLength":84084,"name":"bufferViewAnimationFloatVec3"},{"buffer":0,"byteOffset":392920,"byteLength":64064,"name":"bufferViewAnimationFloatVec4"}],"buffers":[{"uri":"nuevo formatoV5.bin","byteLength":456984}],"materials":[{"pbrMetallicRoughness":{"baseColorFactor":[0.9019608,0.9019608,0.9019608,1.0],"metallicFactor":0.0,"roughnessFactor":0.211577132},"name":"V_white_plastic"},{"pbrMetallicRoughness":{"baseColorFactor":[0.9490196,0.9490196,0.9490196,1.0],"metallicFactor":0.0,"roughnessFactor":0.450053632},"name":"V_transparente"},{"pbrMetallicRoughness":{"baseColorFactor":[1.0,0.0,0.0,1.0],"metallicFactor":0.0,"roughnessFactor":0.450053632},"name":"V_red_plastic"},{"pbrMetallicRoughness":{"baseColorFactor":[0.08235294,0.007843138,0.270588249,1.0],"metallicFactor":0.0,"roughnessFactor":0.450053632},"name":"V_purple_plastic"},{"pbrMetallicRoughness":{"baseColorTexture":{"index":0,"extensions":{"KHR_texture_transform":{"texCoord":0}}},"metallicRoughnessTexture":{"index":1,"extensions":{"KHR_texture_transform":{"texCoord":0}}}},"name":"V_logo"},{"pbrMetallicRoughness":{"baseColorFactor":[0.7764706,0.5294118,0.0,1.0],"metallicFactor":0.0,"roughnessFactor":0.450053632},"name":"VRayMtl8"},{"pbrMetallicRoughness":{"baseColorFactor":[0.0431372561,0.03137255,0.6313726,1.0],"metallicFactor":0.0,"roughnessFactor":0.450053632},"name":"V_blue_plastic"},{"pbrMetallicRoughness":{"baseColorFactor":[1.0,0.694117665,0.06666667,1.0],"metallicFactor":0.0,"roughnessFactor":0.450053632},"name":"V_wellow"}],"textures":[{"sampler":0,"source":0,"name":"etiquetaok.png"},{"sampler":0,"source":1,"name":"MR_etiquetaok.png_spec_etiquetaok_gloss_25,6.png"}],"images":[{"uri":"./etiquetaok.png"},{"uri":"./MR_etiquetaok.png_spec_etiquetaok_gloss_25,6.png"}],"samplers":[{"magFilter":9729,"minFilter":9987}],"animations":[{"channels":[{"sampler":0,"target":{"node":1,"path":"translation"}},{"sampler":1,"target":{"node":1,"path":"rotation"}},{"sampler":2,"target":{"node":2,"path":"translation"}},{"sampler":3,"target":{"node":2,"path":"rotation"}},{"sampler":4,"target":{"node":2,"path":"scale"}},{"sampler":5,"target":{"node":3,"path":"translation"}},{"sampler":6,"target":{"node":3,"path":"rotation"}},{"sampler":7,"target":{"node":3,"path":"scale"}},{"sampler":8,"target":{"node":5,"path":"translation"}},{"sampler":9,"target":{"node":5,"path":"rotation"}},{"sampler":10,"target":{"node":5,"path":"scale"}}],"samplers":[{"input":40,"output":41},{"input":42,"output":43},{"input":44,"output":45},{"input":46,"output":47},{"input":48,"output":49},{"input":50,"output":51},{"input":52,"output":53},{"input":54,"output":55},{"input":56,"output":57},{"input":58,"output":59},{"input":60,"output":61}],"name":"All Animations"}]}